<svg xmlns="http://www.w3.org/2000/svg" xmlns:xlink="http://www.w3.org/1999/xlink" width="500" zoomAndPan="magnify" viewBox="0 0 375 374.999991" height="500" preserveAspectRatio="xMidYMid meet" version="1.0"><defs><g/><clipPath id="6c5cc0012f"><path d="M 160 112.695312 L 214 112.695312 L 214 173 L 160 173 Z M 160 112.695312 " clip-rule="nonzero"/></clipPath><clipPath id="a960f12b77"><path d="M 161.613281 203.375 L 214.898438 203.375 L 214.898438 262.6875 L 161.613281 262.6875 Z M 161.613281 203.375 " clip-rule="nonzero"/></clipPath><clipPath id="c8b42b56b8"><path d="M 112.5 161 L 172 161 L 172 215 L 112.5 215 Z M 112.5 161 " clip-rule="nonzero"/></clipPath><clipPath id="f082747a88"><path d="M 203.179688 160.363281 L 262.492188 160.363281 L 262.492188 213.648438 L 203.179688 213.648438 Z M 203.179688 160.363281 " clip-rule="nonzero"/></clipPath></defs><g clip-path="url(#6c5cc0012f)"><path fill="#ffffff" d="M 170.976562 139.261719 C 170.976562 130.558594 178.054688 123.476562 186.757812 123.476562 C 195.460938 123.476562 202.542969 130.558594 202.542969 139.261719 L 202.542969 172.003906 L 213.324219 172.003906 L 213.324219 139.261719 C 213.324219 124.613281 201.40625 112.695312 186.757812 112.695312 C 172.109375 112.695312 160.191406 124.613281 160.191406 139.261719 L 160.191406 154.734375 L 170.976562 154.734375 L 170.976562 139.261719 " fill-opacity="1" fill-rule="nonzero"/></g><g clip-path="url(#a960f12b77)"><path fill="#ffffff" d="M 204.019531 236.121094 C 204.019531 244.824219 196.9375 251.90625 188.234375 251.90625 C 179.53125 251.90625 172.449219 244.824219 172.449219 236.121094 L 172.449219 203.378906 L 161.667969 203.378906 L 161.667969 236.121094 C 161.667969 250.769531 173.585938 262.6875 188.234375 262.6875 C 202.882812 262.6875 214.800781 250.769531 214.800781 236.121094 L 214.800781 220.648438 L 204.019531 220.648438 L 204.019531 236.121094 " fill-opacity="1" fill-rule="nonzero"/></g><g clip-path="url(#c8b42b56b8)"><path fill="#ffffff" d="M 123.28125 188.429688 C 123.28125 179.726562 130.363281 172.644531 139.066406 172.644531 L 171.808594 172.644531 L 171.808594 161.863281 L 139.066406 161.863281 C 124.417969 161.863281 112.5 173.78125 112.5 188.429688 C 112.5 203.078125 124.417969 214.996094 139.066406 214.996094 L 154.539062 214.996094 L 154.539062 204.214844 L 139.066406 204.214844 C 130.363281 204.214844 123.28125 197.132812 123.28125 188.429688 " fill-opacity="1" fill-rule="nonzero"/></g><g clip-path="url(#f082747a88)"><path fill="#ffffff" d="M 235.925781 160.386719 L 220.453125 160.386719 L 220.453125 171.171875 L 235.925781 171.171875 C 244.628906 171.171875 251.710938 178.25 251.710938 186.953125 C 251.710938 195.660156 244.628906 202.738281 235.925781 202.738281 L 203.183594 202.738281 L 203.183594 213.519531 L 235.925781 213.519531 C 250.574219 213.519531 262.492188 201.605469 262.492188 186.953125 C 262.492188 172.304688 250.574219 160.386719 235.925781 160.386719 " fill-opacity="1" fill-rule="nonzero"/></g><g fill="#ffffff" fill-opacity="1"><g transform="translate(181.792961, 187.35964)"><g><path d="M 2.28125 -2.796875 C 2.28125 -3.890625 2.570312 -4.710938 3.15625 -5.265625 C 3.75 -5.828125 4.601562 -6.109375 5.71875 -6.109375 C 6.800781 -6.109375 7.640625 -5.820312 8.234375 -5.25 C 8.828125 -4.675781 9.125 -3.859375 9.125 -2.796875 C 9.125 -1.765625 8.820312 -0.953125 8.21875 -0.359375 C 7.625 0.234375 6.789062 0.53125 5.71875 0.53125 C 4.625 0.53125 3.773438 0.238281 3.171875 -0.34375 C 2.578125 -0.925781 2.28125 -1.742188 2.28125 -2.796875 Z M 2.28125 -2.796875 "/></g></g></g></svg>