<svg xmlns="http://www.w3.org/2000/svg" xmlns:xlink="http://www.w3.org/1999/xlink" width="500" zoomAndPan="magnify" viewBox="0 0 375 374.999991" height="500" preserveAspectRatio="xMidYMid meet" version="1.0"><defs><g/></defs><g fill="#d9d9d9" fill-opacity="0.4"><g transform="translate(187.413806, 318.245743)"><g><path d="M -3.734375 13.671875 L -4.140625 18.140625 L -18.546875 16.8125 L -18.140625 12.34375 Z M -3.734375 13.671875 "/></g></g></g><g fill="#d9d9d9" fill-opacity="0.4"><g transform="translate(165.624791, 316.771902)"><g><path d="M -18.265625 -5.953125 L -13.484375 -4.390625 L -25.46875 32.375 L -12.484375 36.59375 L -13.859375 40.828125 L -44.609375 30.8125 L -43.234375 26.578125 L -30.25 30.8125 Z M -18.265625 -5.953125 "/></g></g></g><g fill="#d9d9d9" fill-opacity="0.4"><g transform="translate(132.96001, 307.165207)"><g><path d="M -47.78125 -8.078125 C -43.707031 -13.660156 -39.097656 -17.019531 -33.953125 -18.15625 C -28.804688 -19.300781 -23.71875 -18.039062 -18.6875 -14.375 C -13.5625 -10.632812 -10.75 -6.175781 -10.25 -1 C -9.75 4.175781 -11.582031 9.625 -15.75 15.34375 C -19.894531 21.007812 -24.5 24.382812 -29.5625 25.46875 C -34.632812 26.550781 -39.75 25.210938 -44.90625 21.453125 C -49.90625 17.796875 -52.648438 13.359375 -53.140625 8.140625 C -53.640625 2.921875 -51.851562 -2.484375 -47.78125 -8.078125 Z M -20.015625 12.171875 C -16.566406 7.453125 -14.957031 3.140625 -15.1875 -0.765625 C -15.425781 -4.671875 -17.457031 -8.019531 -21.28125 -10.8125 C -25.144531 -13.625 -28.945312 -14.535156 -32.6875 -13.546875 C -36.425781 -12.554688 -40.023438 -9.691406 -43.484375 -4.953125 C -46.898438 -0.265625 -48.507812 4.003906 -48.3125 7.859375 C -48.125 11.710938 -46.109375 15.039062 -42.265625 17.84375 C -38.398438 20.65625 -34.570312 21.578125 -30.78125 20.609375 C -27 19.640625 -23.410156 16.828125 -20.015625 12.171875 Z M -20.015625 12.171875 "/></g></g></g><g fill="#d9d9d9" fill-opacity="0.4"><g transform="translate(95.390592, 278.65192)"><g><path d="M -44.15625 -9.515625 C -40.59375 -12.035156 -36.988281 -12.757812 -33.34375 -11.6875 C -29.707031 -10.613281 -26.289062 -7.816406 -23.09375 -3.296875 L -20.15625 0.84375 L -6.3125 -8.9375 L -3.421875 -4.828125 L -38.625 20.078125 L -45.078125 10.9375 C -51.296875 2.144531 -50.988281 -4.671875 -44.15625 -9.515625 Z M -23.671875 3.34375 L -26.28125 -0.328125 C -28.851562 -3.960938 -31.300781 -6.175781 -33.625 -6.96875 C -35.945312 -7.757812 -38.398438 -7.238281 -40.984375 -5.40625 C -43.304688 -3.769531 -44.492188 -1.785156 -44.546875 0.546875 C -44.597656 2.878906 -43.484375 5.65625 -41.203125 8.875 L -37.96875 13.453125 Z M -23.671875 3.34375 "/></g></g></g><g fill="#d9d9d9" fill-opacity="0.4"><g transform="translate(73.0603, 249.833308)"><g><path d="M -6.5625 -24.140625 L -39.59375 0.015625 L -39.53125 0.25 C -36.695312 -0.8125 -33.269531 -1.890625 -29.25 -2.984375 L -2.78125 -10.1875 L -1.5625 -5.71875 L -43.171875 5.609375 L -45.15625 -1.6875 L -14.40625 -24.203125 L -14.46875 -24.421875 L -52.421875 -28.375 L -54.390625 -35.609375 L -12.78125 -46.9375 L -11.453125 -42.09375 L -38.265625 -34.796875 C -41.335938 -33.960938 -44.710938 -33.179688 -48.390625 -32.453125 L -48.328125 -32.234375 L -7.625 -28.03125 Z M -6.5625 -24.140625 "/></g></g></g><g fill="#d9d9d9" fill-opacity="0.4"><g transform="translate(60.5056, 197.08644)"><g><path d="M 2.234375 -29.890625 L 0.4375 -5.90625 L -42.5625 -9.125 L -40.765625 -33.109375 L -36.328125 -32.78125 L -37.75 -13.796875 L -23.90625 -12.765625 L -22.5625 -30.59375 L -18.140625 -30.25 L -19.484375 -12.421875 L -3.65625 -11.234375 L -2.234375 -30.21875 Z M 2.234375 -29.890625 "/></g></g></g><g fill="#d9d9d9" fill-opacity="0.4"><g transform="translate(62.385755, 162.792469)"><g><path d="M -5.40625 -45.609375 C 1.195312 -42.972656 5.53125 -39.160156 7.59375 -34.171875 C 9.65625 -29.191406 9.335938 -23.332031 6.640625 -16.59375 L 2.203125 -5.5 L -37.828125 -21.53125 L -32.921875 -33.796875 C -30.429688 -40.023438 -26.769531 -44.171875 -21.9375 -46.234375 C -17.101562 -48.296875 -11.59375 -48.085938 -5.40625 -45.609375 Z M -7.21875 -40.625 C -12.4375 -42.71875 -16.890625 -42.984375 -20.578125 -41.421875 C -24.273438 -39.859375 -27.15625 -36.492188 -29.21875 -31.328125 L -31.9375 -24.5625 L 0.046875 -11.765625 L 2.3125 -17.4375 C 4.539062 -22.988281 4.84375 -27.707031 3.21875 -31.59375 C 1.601562 -35.476562 -1.875 -38.488281 -7.21875 -40.625 Z M -7.21875 -40.625 "/></g></g></g><g fill="#d9d9d9" fill-opacity="0.4"><g transform="translate(81.083947, 121.18951)"><g><path d="M 3.5 -4.78125 L -31.3125 -30.21875 L -28.359375 -34.265625 L 6.453125 -8.828125 Z M 3.5 -4.78125 "/></g></g></g><g fill="#d9d9d9" fill-opacity="0.4"><g transform="translate(91.601424, 105.164896)"><g><path d="M -7.046875 -45.671875 C -10.648438 -42.585938 -12.460938 -38.957031 -12.484375 -34.78125 C -12.515625 -30.601562 -10.738281 -26.429688 -7.15625 -22.265625 C -3.488281 -17.984375 0.347656 -15.53125 4.359375 -14.90625 C 8.367188 -14.289062 12.234375 -15.578125 15.953125 -18.765625 C 18.234375 -20.722656 20.484375 -23.367188 22.703125 -26.703125 L 25.5625 -23.375 C 24.03125 -20.570312 21.601562 -17.742188 18.28125 -14.890625 C 13.457031 -10.753906 8.476562 -9.023438 3.34375 -9.703125 C -1.78125 -10.390625 -6.65625 -13.429688 -11.28125 -18.828125 C -14.164062 -22.191406 -16.066406 -25.679688 -16.984375 -29.296875 C -17.898438 -32.910156 -17.753906 -36.425781 -16.546875 -39.84375 C -15.347656 -43.257812 -13.132812 -46.351562 -9.90625 -49.125 C -6.476562 -52.0625 -2.941406 -54.007812 0.703125 -54.96875 L 1.890625 -50.296875 C -1.597656 -49.335938 -4.578125 -47.796875 -7.046875 -45.671875 Z M -7.046875 -45.671875 "/></g></g></g><g fill="#d9d9d9" fill-opacity="0.4"><g transform="translate(121.128283, 79.968453)"><g><path d="M 30.328125 -13.09375 L 19.96875 -23.5625 L 4.09375 -16.703125 L 4.65625 -2.015625 L 0 0 L -1.5 -46.5 L 2.375 -48.171875 L 35.09375 -15.140625 Z M 16.75 -27.078125 L 6.84375 -37.359375 C 5.582031 -38.648438 4.144531 -40.289062 2.53125 -42.28125 C 2.882812 -40.382812 3.140625 -38.234375 3.296875 -35.828125 L 3.9375 -21.546875 Z M 16.75 -27.078125 "/></g></g></g><g fill="#d9d9d9" fill-opacity="0.4"><g transform="translate(157.475225, 64.975176)"><g><path d="M 5.875 -0.75 L 0.359375 -43.515625 L 5.328125 -44.15625 L 10.265625 -5.90625 L 29.140625 -8.34375 L 29.71875 -3.828125 Z M 5.875 -0.75 "/></g></g></g><g fill="#d9d9d9" fill-opacity="0.4"><g transform="translate(191.052713, 61.561837)"><g><path d="M 3.703125 -13.671875 L 4.109375 -18.140625 L 18.53125 -16.859375 L 18.125 -12.390625 Z M 3.703125 -13.671875 "/></g></g></g><g fill="#d9d9d9" fill-opacity="0.4"><g transform="translate(212.846806, 62.982596)"><g><path d="M 18.265625 5.90625 L 13.5 4.359375 L 25.390625 -32.4375 L 12.390625 -36.640625 L 13.765625 -40.875 L 44.53125 -30.921875 L 43.15625 -26.6875 L 30.15625 -30.890625 Z M 18.265625 5.90625 "/></g></g></g><g fill="#d9d9d9" fill-opacity="0.4"><g transform="translate(245.527039, 72.509645)"><g><path d="M 47.796875 7.96875 C 43.734375 13.550781 39.128906 16.914062 33.984375 18.0625 C 28.847656 19.21875 23.757812 17.972656 18.71875 14.328125 C 13.59375 10.597656 10.769531 6.144531 10.25 0.96875 C 9.738281 -4.195312 11.5625 -9.644531 15.71875 -15.375 C 19.84375 -21.050781 24.4375 -24.4375 29.5 -25.53125 C 34.5625 -26.625 39.675781 -25.300781 44.84375 -21.5625 C 49.851562 -17.914062 52.613281 -13.476562 53.125 -8.25 C 53.632812 -3.03125 51.859375 2.375 47.796875 7.96875 Z M 19.984375 -12.21875 C 16.546875 -7.488281 14.945312 -3.175781 15.1875 0.71875 C 15.425781 4.625 17.460938 7.972656 21.296875 10.765625 C 25.171875 13.566406 28.976562 14.46875 32.71875 13.46875 C 36.457031 12.46875 40.050781 9.59375 43.5 4.84375 C 46.90625 0.144531 48.503906 -4.125 48.296875 -7.96875 C 48.097656 -11.8125 46.070312 -15.132812 42.21875 -17.9375 C 38.34375 -20.75 34.515625 -21.664062 30.734375 -20.6875 C 26.953125 -19.707031 23.367188 -16.882812 19.984375 -12.21875 Z M 19.984375 -12.21875 "/></g></g></g><g fill="#d9d9d9" fill-opacity="0.4"><g transform="translate(283.165931, 100.931325)"><g><path d="M 44.1875 9.40625 C 40.632812 11.925781 37.03125 12.65625 33.375 11.59375 C 29.726562 10.53125 26.300781 7.738281 23.09375 3.21875 L 20.15625 -0.90625 L 6.34375 8.921875 L 3.4375 4.828125 L 38.578125 -20.15625 L 45.046875 -11.046875 C 51.296875 -2.265625 51.007812 4.550781 44.1875 9.40625 Z M 23.671875 -3.40625 L 26.28125 0.265625 C 28.851562 3.890625 31.300781 6.097656 33.625 6.890625 C 35.945312 7.679688 38.398438 7.15625 40.984375 5.3125 C 43.296875 3.664062 44.476562 1.675781 44.53125 -0.65625 C 44.59375 -2.988281 43.484375 -5.765625 41.203125 -8.984375 L 37.953125 -13.546875 Z M 23.671875 -3.40625 "/></g></g></g><g fill="#d9d9d9" fill-opacity="0.4"><g transform="translate(305.575447, 129.695414)"><g><path d="M 6.625 24.125 L 39.609375 -0.125 L 39.546875 -0.34375 C 36.703125 0.726562 33.269531 1.816406 29.25 2.921875 L 2.796875 10.1875 L 1.5625 5.703125 L 43.140625 -5.71875 L 45.15625 1.578125 L 14.46875 24.171875 L 14.53125 24.390625 L 52.484375 28.25 L 54.46875 35.484375 L 12.890625 46.90625 L 11.5625 42.0625 L 38.34375 34.703125 C 41.414062 33.859375 44.796875 33.070312 48.484375 32.34375 L 48.421875 32.125 L 7.703125 28.015625 Z M 6.625 24.125 "/></g></g></g><g fill="#d9d9d9" fill-opacity="0.4"><g transform="translate(318.256176, 182.411527)"><g><path d="M -2.171875 29.890625 L -0.421875 5.90625 L 42.59375 9.03125 L 40.84375 33.015625 L 36.40625 32.6875 L 37.78125 13.703125 L 23.921875 12.703125 L 22.640625 30.53125 L 18.234375 30.203125 L 19.515625 12.375 L 3.671875 11.234375 L 2.296875 30.21875 Z M -2.171875 29.890625 "/></g></g></g><g fill="#d9d9d9" fill-opacity="0.4"><g transform="translate(316.461026, 216.709961)"><g><path d="M 5.515625 45.59375 C -1.097656 42.96875 -5.441406 39.164062 -7.515625 34.1875 C -9.585938 29.21875 -9.28125 23.359375 -6.59375 16.609375 L -2.1875 5.5 L 37.890625 21.421875 L 33.015625 33.703125 C 30.535156 39.941406 26.878906 44.097656 22.046875 46.171875 C 17.210938 48.253906 11.703125 48.0625 5.515625 45.59375 Z M 7.3125 40.609375 C 12.539062 42.691406 17 42.945312 20.6875 41.375 C 24.375 39.8125 27.242188 36.441406 29.296875 31.265625 L 31.984375 24.5 L -0.03125 11.765625 L -2.28125 17.4375 C -4.488281 22.988281 -4.78125 27.707031 -3.15625 31.59375 C -1.53125 35.476562 1.957031 38.484375 7.3125 40.609375 Z M 7.3125 40.609375 "/></g></g></g><g fill="#d9d9d9" fill-opacity="0.4"><g transform="translate(297.856155, 258.358369)"><g><path d="M -3.484375 4.796875 L 31.390625 30.15625 L 28.4375 34.203125 L -6.4375 8.84375 Z M -3.484375 4.796875 "/></g></g></g><g fill="#d9d9d9" fill-opacity="0.4"><g transform="translate(287.383953, 274.408581)"><g><path d="M 7.171875 45.65625 C 10.753906 42.5625 12.550781 38.925781 12.5625 34.75 C 12.582031 30.570312 10.800781 26.40625 7.21875 22.25 C 3.53125 17.976562 -0.316406 15.535156 -4.328125 14.921875 C -8.335938 14.316406 -12.195312 15.613281 -15.90625 18.8125 C -18.1875 20.769531 -20.4375 23.421875 -22.65625 26.765625 L -25.515625 23.4375 C -23.984375 20.625 -21.554688 17.789062 -18.234375 14.9375 C -13.429688 10.789062 -8.460938 9.050781 -3.328125 9.71875 C 1.796875 10.382812 6.679688 13.40625 11.328125 18.78125 C 14.222656 22.144531 16.132812 25.632812 17.0625 29.25 C 17.988281 32.863281 17.851562 36.378906 16.65625 39.796875 C 15.457031 43.210938 13.25 46.3125 10.03125 49.09375 C 6.601562 52.039062 3.070312 53.992188 -0.5625 54.953125 L -1.765625 50.3125 C 1.722656 49.34375 4.703125 47.789062 7.171875 45.65625 Z M 7.171875 45.65625 "/></g></g></g><g fill="#d9d9d9" fill-opacity="0.4"><g transform="translate(257.917802, 299.676896)"><g><path d="M -30.296875 13.15625 L -19.90625 23.609375 L -4.046875 16.71875 L -4.65625 2.015625 L 0 0 L 1.609375 46.5 L -2.25 48.171875 L -35.046875 15.234375 Z M -16.6875 27.125 L -6.75 37.390625 C -5.476562 38.671875 -4.039062 40.304688 -2.4375 42.296875 C -2.789062 40.390625 -3.046875 38.238281 -3.203125 35.84375 L -3.890625 21.5625 Z M -16.6875 27.125 "/></g></g></g><g fill="#d9d9d9" fill-opacity="0.4"><g transform="translate(221.611829, 314.758697)"><g><path d="M -5.875 0.765625 L -0.25 43.515625 L -5.21875 44.171875 L -10.25 5.9375 L -29.125 8.421875 L -29.71875 3.90625 Z M -5.875 0.765625 "/></g></g></g><g fill="#ffffff" fill-opacity="1"><g transform="translate(184.744128, 315.576065)"><g><path d="M -3.734375 13.671875 L -4.140625 18.140625 L -18.546875 16.8125 L -18.140625 12.34375 Z M -3.734375 13.671875 "/></g></g></g><g fill="#ffffff" fill-opacity="1"><g transform="translate(162.955113, 314.102195)"><g><path d="M -18.265625 -5.953125 L -13.484375 -4.390625 L -25.46875 32.375 L -12.484375 36.59375 L -13.859375 40.828125 L -44.609375 30.8125 L -43.234375 26.578125 L -30.25 30.8125 Z M -18.265625 -5.953125 "/></g></g></g><g fill="#ffffff" fill-opacity="1"><g transform="translate(130.290342, 304.495528)"><g><path d="M -47.78125 -8.078125 C -43.707031 -13.660156 -39.097656 -17.019531 -33.953125 -18.15625 C -28.804688 -19.300781 -23.71875 -18.039062 -18.6875 -14.375 C -13.5625 -10.632812 -10.75 -6.175781 -10.25 -1 C -9.75 4.175781 -11.582031 9.625 -15.75 15.34375 C -19.894531 21.007812 -24.5 24.382812 -29.5625 25.46875 C -34.632812 26.550781 -39.75 25.210938 -44.90625 21.453125 C -49.90625 17.796875 -52.648438 13.359375 -53.140625 8.140625 C -53.640625 2.921875 -51.851562 -2.484375 -47.78125 -8.078125 Z M -20.015625 12.171875 C -16.566406 7.453125 -14.957031 3.140625 -15.1875 -0.765625 C -15.425781 -4.671875 -17.457031 -8.019531 -21.28125 -10.8125 C -25.144531 -13.625 -28.945312 -14.535156 -32.6875 -13.546875 C -36.425781 -12.554688 -40.023438 -9.691406 -43.484375 -4.953125 C -46.898438 -0.265625 -48.507812 4.003906 -48.3125 7.859375 C -48.125 11.710938 -46.109375 15.039062 -42.265625 17.84375 C -38.398438 20.65625 -34.570312 21.578125 -30.78125 20.609375 C -27 19.640625 -23.410156 16.828125 -20.015625 12.171875 Z M -20.015625 12.171875 "/></g></g></g><g fill="#ffffff" fill-opacity="1"><g transform="translate(92.720913, 275.982213)"><g><path d="M -44.15625 -9.515625 C -40.59375 -12.035156 -36.988281 -12.757812 -33.34375 -11.6875 C -29.707031 -10.613281 -26.289062 -7.816406 -23.09375 -3.296875 L -20.15625 0.84375 L -6.3125 -8.9375 L -3.421875 -4.828125 L -38.625 20.078125 L -45.078125 10.9375 C -51.296875 2.144531 -50.988281 -4.671875 -44.15625 -9.515625 Z M -23.671875 3.34375 L -26.28125 -0.328125 C -28.851562 -3.960938 -31.300781 -6.175781 -33.625 -6.96875 C -35.945312 -7.757812 -38.398438 -7.238281 -40.984375 -5.40625 C -43.304688 -3.769531 -44.492188 -1.785156 -44.546875 0.546875 C -44.597656 2.878906 -43.484375 5.65625 -41.203125 8.875 L -37.96875 13.453125 Z M -23.671875 3.34375 "/></g></g></g><g fill="#ffffff" fill-opacity="1"><g transform="translate(70.390624, 247.16363)"><g><path d="M -6.5625 -24.140625 L -39.59375 0.015625 L -39.53125 0.25 C -36.695312 -0.8125 -33.269531 -1.890625 -29.25 -2.984375 L -2.78125 -10.1875 L -1.5625 -5.71875 L -43.171875 5.609375 L -45.15625 -1.6875 L -14.40625 -24.203125 L -14.46875 -24.421875 L -52.421875 -28.375 L -54.390625 -35.609375 L -12.78125 -46.9375 L -11.453125 -42.09375 L -38.265625 -34.796875 C -41.335938 -33.960938 -44.710938 -33.179688 -48.390625 -32.453125 L -48.328125 -32.234375 L -7.625 -28.03125 Z M -6.5625 -24.140625 "/></g></g></g><g fill="#ffffff" fill-opacity="1"><g transform="translate(57.835923, 194.416762)"><g><path d="M 2.234375 -29.890625 L 0.4375 -5.90625 L -42.5625 -9.125 L -40.765625 -33.109375 L -36.328125 -32.78125 L -37.75 -13.796875 L -23.90625 -12.765625 L -22.5625 -30.59375 L -18.140625 -30.25 L -19.484375 -12.421875 L -3.65625 -11.234375 L -2.234375 -30.21875 Z M 2.234375 -29.890625 "/></g></g></g><g fill="#ffffff" fill-opacity="1"><g transform="translate(59.716077, 160.122791)"><g><path d="M -5.40625 -45.609375 C 1.195312 -42.972656 5.53125 -39.160156 7.59375 -34.171875 C 9.65625 -29.191406 9.335938 -23.332031 6.640625 -16.59375 L 2.203125 -5.5 L -37.828125 -21.53125 L -32.921875 -33.796875 C -30.429688 -40.023438 -26.769531 -44.171875 -21.9375 -46.234375 C -17.101562 -48.296875 -11.59375 -48.085938 -5.40625 -45.609375 Z M -7.21875 -40.625 C -12.4375 -42.71875 -16.890625 -42.984375 -20.578125 -41.421875 C -24.273438 -39.859375 -27.15625 -36.492188 -29.21875 -31.328125 L -31.9375 -24.5625 L 0.046875 -11.765625 L 2.3125 -17.4375 C 4.539062 -22.988281 4.84375 -27.707031 3.21875 -31.59375 C 1.601562 -35.476562 -1.875 -38.488281 -7.21875 -40.625 Z M -7.21875 -40.625 "/></g></g></g><g fill="#ffffff" fill-opacity="1"><g transform="translate(78.414271, 118.519824)"><g><path d="M 3.5 -4.78125 L -31.3125 -30.21875 L -28.359375 -34.265625 L 6.453125 -8.828125 Z M 3.5 -4.78125 "/></g></g></g><g fill="#ffffff" fill-opacity="1"><g transform="translate(88.931746, 102.495213)"><g><path d="M -7.046875 -45.671875 C -10.648438 -42.585938 -12.460938 -38.957031 -12.484375 -34.78125 C -12.515625 -30.601562 -10.738281 -26.429688 -7.15625 -22.265625 C -3.488281 -17.984375 0.347656 -15.53125 4.359375 -14.90625 C 8.367188 -14.289062 12.234375 -15.578125 15.953125 -18.765625 C 18.234375 -20.722656 20.484375 -23.367188 22.703125 -26.703125 L 25.5625 -23.375 C 24.03125 -20.570312 21.601562 -17.742188 18.28125 -14.890625 C 13.457031 -10.753906 8.476562 -9.023438 3.34375 -9.703125 C -1.78125 -10.390625 -6.65625 -13.429688 -11.28125 -18.828125 C -14.164062 -22.191406 -16.066406 -25.679688 -16.984375 -29.296875 C -17.898438 -32.910156 -17.753906 -36.425781 -16.546875 -39.84375 C -15.347656 -43.257812 -13.132812 -46.351562 -9.90625 -49.125 C -6.476562 -52.0625 -2.941406 -54.007812 0.703125 -54.96875 L 1.890625 -50.296875 C -1.597656 -49.335938 -4.578125 -47.796875 -7.046875 -45.671875 Z M -7.046875 -45.671875 "/></g></g></g><g fill="#ffffff" fill-opacity="1"><g transform="translate(118.458605, 77.298768)"><g><path d="M 30.328125 -13.09375 L 19.96875 -23.5625 L 4.09375 -16.703125 L 4.65625 -2.015625 L 0 0 L -1.5 -46.5 L 2.375 -48.171875 L 35.09375 -15.140625 Z M 16.75 -27.078125 L 6.84375 -37.359375 C 5.582031 -38.648438 4.144531 -40.289062 2.53125 -42.28125 C 2.882812 -40.382812 3.140625 -38.234375 3.296875 -35.828125 L 3.9375 -21.546875 Z M 16.75 -27.078125 "/></g></g></g><g fill="#ffffff" fill-opacity="1"><g transform="translate(154.805549, 62.30549)"><g><path d="M 5.875 -0.75 L 0.359375 -43.515625 L 5.328125 -44.15625 L 10.265625 -5.90625 L 29.140625 -8.34375 L 29.71875 -3.828125 Z M 5.875 -0.75 "/></g></g></g><g fill="#ffffff" fill-opacity="1"><g transform="translate(188.383035, 58.892153)"><g><path d="M 3.703125 -13.671875 L 4.109375 -18.140625 L 18.53125 -16.859375 L 18.125 -12.390625 Z M 3.703125 -13.671875 "/></g></g></g><g fill="#ffffff" fill-opacity="1"><g transform="translate(210.177128, 60.312911)"><g><path d="M 18.265625 5.90625 L 13.5 4.359375 L 25.390625 -32.4375 L 12.390625 -36.640625 L 13.765625 -40.875 L 44.53125 -30.921875 L 43.15625 -26.6875 L 30.15625 -30.890625 Z M 18.265625 5.90625 "/></g></g></g><g fill="#ffffff" fill-opacity="1"><g transform="translate(242.85736, 69.83996)"><g><path d="M 47.796875 7.96875 C 43.734375 13.550781 39.128906 16.914062 33.984375 18.0625 C 28.847656 19.21875 23.757812 17.972656 18.71875 14.328125 C 13.59375 10.597656 10.769531 6.144531 10.25 0.96875 C 9.738281 -4.195312 11.5625 -9.644531 15.71875 -15.375 C 19.84375 -21.050781 24.4375 -24.4375 29.5 -25.53125 C 34.5625 -26.625 39.675781 -25.300781 44.84375 -21.5625 C 49.851562 -17.914062 52.613281 -13.476562 53.125 -8.25 C 53.632812 -3.03125 51.859375 2.375 47.796875 7.96875 Z M 19.984375 -12.21875 C 16.546875 -7.488281 14.945312 -3.175781 15.1875 0.71875 C 15.425781 4.625 17.460938 7.972656 21.296875 10.765625 C 25.171875 13.566406 28.976562 14.46875 32.71875 13.46875 C 36.457031 12.46875 40.050781 9.59375 43.5 4.84375 C 46.90625 0.144531 48.503906 -4.125 48.296875 -7.96875 C 48.097656 -11.8125 46.070312 -15.132812 42.21875 -17.9375 C 38.34375 -20.75 34.515625 -21.664062 30.734375 -20.6875 C 26.953125 -19.707031 23.367188 -16.882812 19.984375 -12.21875 Z M 19.984375 -12.21875 "/></g></g></g><g fill="#ffffff" fill-opacity="1"><g transform="translate(280.496255, 98.261639)"><g><path d="M 44.1875 9.40625 C 40.632812 11.925781 37.03125 12.65625 33.375 11.59375 C 29.726562 10.53125 26.300781 7.738281 23.09375 3.21875 L 20.15625 -0.90625 L 6.34375 8.921875 L 3.4375 4.828125 L 38.578125 -20.15625 L 45.046875 -11.046875 C 51.296875 -2.265625 51.007812 4.550781 44.1875 9.40625 Z M 23.671875 -3.40625 L 26.28125 0.265625 C 28.851562 3.890625 31.300781 6.097656 33.625 6.890625 C 35.945312 7.679688 38.398438 7.15625 40.984375 5.3125 C 43.296875 3.664062 44.476562 1.675781 44.53125 -0.65625 C 44.59375 -2.988281 43.484375 -5.765625 41.203125 -8.984375 L 37.953125 -13.546875 Z M 23.671875 -3.40625 "/></g></g></g><g fill="#ffffff" fill-opacity="1"><g transform="translate(302.905769, 127.025721)"><g><path d="M 6.625 24.125 L 39.609375 -0.125 L 39.546875 -0.34375 C 36.703125 0.726562 33.269531 1.816406 29.25 2.921875 L 2.796875 10.1875 L 1.5625 5.703125 L 43.140625 -5.71875 L 45.15625 1.578125 L 14.46875 24.171875 L 14.53125 24.390625 L 52.484375 28.25 L 54.46875 35.484375 L 12.890625 46.90625 L 11.5625 42.0625 L 38.34375 34.703125 C 41.414062 33.859375 44.796875 33.070312 48.484375 32.34375 L 48.421875 32.125 L 7.703125 28.015625 Z M 6.625 24.125 "/></g></g></g><g fill="#ffffff" fill-opacity="1"><g transform="translate(315.586498, 179.741834)"><g><path d="M -2.171875 29.890625 L -0.421875 5.90625 L 42.59375 9.03125 L 40.84375 33.015625 L 36.40625 32.6875 L 37.78125 13.703125 L 23.921875 12.703125 L 22.640625 30.53125 L 18.234375 30.203125 L 19.515625 12.375 L 3.671875 11.234375 L 2.296875 30.21875 Z M -2.171875 29.890625 "/></g></g></g><g fill="#ffffff" fill-opacity="1"><g transform="translate(313.791347, 214.040282)"><g><path d="M 5.515625 45.59375 C -1.097656 42.96875 -5.441406 39.164062 -7.515625 34.1875 C -9.585938 29.21875 -9.28125 23.359375 -6.59375 16.609375 L -2.1875 5.5 L 37.890625 21.421875 L 33.015625 33.703125 C 30.535156 39.941406 26.878906 44.097656 22.046875 46.171875 C 17.210938 48.253906 11.703125 48.0625 5.515625 45.59375 Z M 7.3125 40.609375 C 12.539062 42.691406 17 42.945312 20.6875 41.375 C 24.375 39.8125 27.242188 36.441406 29.296875 31.265625 L 31.984375 24.5 L -0.03125 11.765625 L -2.28125 17.4375 C -4.488281 22.988281 -4.78125 27.707031 -3.15625 31.59375 C -1.53125 35.476562 1.957031 38.484375 7.3125 40.609375 Z M 7.3125 40.609375 "/></g></g></g><g fill="#ffffff" fill-opacity="1"><g transform="translate(295.186448, 255.688691)"><g><path d="M -3.484375 4.796875 L 31.390625 30.15625 L 28.4375 34.203125 L -6.4375 8.84375 Z M -3.484375 4.796875 "/></g></g></g><g fill="#ffffff" fill-opacity="1"><g transform="translate(284.714275, 271.738874)"><g><path d="M 7.171875 45.65625 C 10.753906 42.5625 12.550781 38.925781 12.5625 34.75 C 12.582031 30.570312 10.800781 26.40625 7.21875 22.25 C 3.53125 17.976562 -0.316406 15.535156 -4.328125 14.921875 C -8.335938 14.316406 -12.195312 15.613281 -15.90625 18.8125 C -18.1875 20.769531 -20.4375 23.421875 -22.65625 26.765625 L -25.515625 23.4375 C -23.984375 20.625 -21.554688 17.789062 -18.234375 14.9375 C -13.429688 10.789062 -8.460938 9.050781 -3.328125 9.71875 C 1.796875 10.382812 6.679688 13.40625 11.328125 18.78125 C 14.222656 22.144531 16.132812 25.632812 17.0625 29.25 C 17.988281 32.863281 17.851562 36.378906 16.65625 39.796875 C 15.457031 43.210938 13.25 46.3125 10.03125 49.09375 C 6.601562 52.039062 3.070312 53.992188 -0.5625 54.953125 L -1.765625 50.3125 C 1.722656 49.34375 4.703125 47.789062 7.171875 45.65625 Z M 7.171875 45.65625 "/></g></g></g><g fill="#ffffff" fill-opacity="1"><g transform="translate(255.248124, 297.00722)"><g><path d="M -30.296875 13.15625 L -19.90625 23.609375 L -4.046875 16.71875 L -4.65625 2.015625 L 0 0 L 1.609375 46.5 L -2.25 48.171875 L -35.046875 15.234375 Z M -16.6875 27.125 L -6.75 37.390625 C -5.476562 38.671875 -4.039062 40.304688 -2.4375 42.296875 C -2.789062 40.390625 -3.046875 38.238281 -3.203125 35.84375 L -3.890625 21.5625 Z M -16.6875 27.125 "/></g></g></g><g fill="#ffffff" fill-opacity="1"><g transform="translate(218.942153, 312.089021)"><g><path d="M -5.875 0.765625 L -0.25 43.515625 L -5.21875 44.171875 L -10.25 5.9375 L -29.125 8.421875 L -29.71875 3.90625 Z M -5.875 0.765625 "/></g></g></g></svg>